<svg xmlns="http://www.w3.org/2000/svg" width="1000" height="1000" viewBox="0 0 57 57" shape-rendering="crispEdges" role="img" aria-label="QR code">
<rect width="57" height="57" fill="#FFFFFF"/>
<path fill="#560D20" d="M4 4h7v1h-7zM13 4h1v1h-1zM19 4h2v1h-2zM22 4h1v1h-1zM25 4h5v1h-5zM32 4h1v1h-1zM34 4h3v1h-3zM38 4h2v1h-2zM44 4h1v1h-1zM46 4h7v1h-7zM4 5h1v1h-1zM10 5h1v1h-1zM12 5h4v1h-4zM17 5h3v1h-3zM21 5h3v1h-3zM26 5h1v1h-1zM29 5h1v1h-1zM31 5h2v1h-2zM35 5h1v1h-1zM38 5h7v1h-7zM46 5h1v1h-1zM52 5h1v1h-1zM4 6h1v1h-1zM6 6h3v1h-3zM10 6h1v1h-1zM12 6h1v1h-1zM14 6h2v1h-2zM23 6h5v1h-5zM31 6h1v1h-1zM33 6h1v1h-1zM36 6h1v1h-1zM39 6h1v1h-1zM41 6h1v1h-1zM43 6h2v1h-2zM46 6h1v1h-1zM48 6h3v1h-3zM52 6h1v1h-1zM4 7h1v1h-1zM6 7h3v1h-3zM10 7h1v1h-1zM12 7h4v1h-4zM17 7h2v1h-2zM22 7h2v1h-2zM26 7h2v1h-2zM29 7h1v1h-1zM31 7h2v1h-2zM34 7h1v1h-1zM38 7h2v1h-2zM41 7h1v1h-1zM43 7h1v1h-1zM46 7h1v1h-1zM48 7h3v1h-3zM52 7h1v1h-1zM4 8h1v1h-1zM6 8h3v1h-3zM10 8h1v1h-1zM12 8h6v1h-6zM19 8h1v1h-1zM22 8h1v1h-1zM25 8h6v1h-6zM35 8h1v1h-1zM38 8h1v1h-1zM40 8h1v1h-1zM46 8h1v1h-1zM48 8h3v1h-3zM52 8h1v1h-1zM4 9h1v1h-1zM10 9h1v1h-1zM12 9h2v1h-2zM17 9h8v1h-8zM26 9h1v1h-1zM30 9h1v1h-1zM32 9h1v1h-1zM34 9h1v1h-1zM38 9h1v1h-1zM42 9h1v1h-1zM46 9h1v1h-1zM52 9h1v1h-1zM4 10h7v1h-7zM12 10h1v1h-1zM14 10h1v1h-1zM16 10h1v1h-1zM18 10h1v1h-1zM20 10h1v1h-1zM22 10h1v1h-1zM24 10h1v1h-1zM26 10h1v1h-1zM28 10h1v1h-1zM30 10h1v1h-1zM32 10h1v1h-1zM34 10h1v1h-1zM36 10h1v1h-1zM38 10h1v1h-1zM40 10h1v1h-1zM42 10h1v1h-1zM44 10h1v1h-1zM46 10h7v1h-7zM13 11h1v1h-1zM16 11h1v1h-1zM19 11h1v1h-1zM21 11h1v1h-1zM24 11h3v1h-3zM30 11h2v1h-2zM33 11h1v1h-1zM35 11h3v1h-3zM41 11h1v1h-1zM43 11h2v1h-2zM6 12h1v1h-1zM9 12h6v1h-6zM17 12h1v1h-1zM19 12h2v1h-2zM22 12h2v1h-2zM26 12h5v1h-5zM32 12h2v1h-2zM35 12h1v1h-1zM38 12h1v1h-1zM41 12h3v1h-3zM45 12h1v1h-1zM47 12h5v1h-5zM5 13h1v1h-1zM8 13h1v1h-1zM12 13h1v1h-1zM17 13h1v1h-1zM20 13h2v1h-2zM29 13h2v1h-2zM32 13h1v1h-1zM36 13h2v1h-2zM40 13h2v1h-2zM43 13h1v1h-1zM45 13h1v1h-1zM47 13h1v1h-1zM51 13h2v1h-2zM5 14h1v1h-1zM7 14h4v1h-4zM13 14h5v1h-5zM20 14h2v1h-2zM26 14h1v1h-1zM28 14h1v1h-1zM31 14h3v1h-3zM35 14h1v1h-1zM37 14h1v1h-1zM41 14h1v1h-1zM44 14h1v1h-1zM52 14h1v1h-1zM5 15h1v1h-1zM8 15h1v1h-1zM11 15h3v1h-3zM16 15h5v1h-5zM23 15h1v1h-1zM25 15h3v1h-3zM30 15h5v1h-5zM36 15h3v1h-3zM43 15h4v1h-4zM48 15h1v1h-1zM51 15h2v1h-2zM4 16h1v1h-1zM7 16h4v1h-4zM13 16h4v1h-4zM20 16h4v1h-4zM26 16h1v1h-1zM28 16h2v1h-2zM31 16h1v1h-1zM33 16h2v1h-2zM37 16h1v1h-1zM39 16h2v1h-2zM42 16h2v1h-2zM48 16h2v1h-2zM6 17h3v1h-3zM11 17h4v1h-4zM16 17h2v1h-2zM19 17h2v1h-2zM25 17h2v1h-2zM28 17h1v1h-1zM30 17h4v1h-4zM35 17h1v1h-1zM37 17h5v1h-5zM45 17h1v1h-1zM48 17h1v1h-1zM51 17h2v1h-2zM5 18h3v1h-3zM10 18h1v1h-1zM12 18h1v1h-1zM14 18h4v1h-4zM20 18h4v1h-4zM28 18h1v1h-1zM30 18h1v1h-1zM33 18h1v1h-1zM35 18h4v1h-4zM43 18h1v1h-1zM45 18h1v1h-1zM50 18h1v1h-1zM52 18h1v1h-1zM4 19h1v1h-1zM6 19h3v1h-3zM13 19h2v1h-2zM16 19h4v1h-4zM21 19h1v1h-1zM23 19h4v1h-4zM28 19h1v1h-1zM30 19h1v1h-1zM33 19h2v1h-2zM36 19h1v1h-1zM40 19h1v1h-1zM44 19h5v1h-5zM4 20h1v1h-1zM7 20h2v1h-2zM10 20h4v1h-4zM15 20h1v1h-1zM19 20h1v1h-1zM21 20h3v1h-3zM26 20h1v1h-1zM29 20h2v1h-2zM32 20h2v1h-2zM35 20h1v1h-1zM38 20h1v1h-1zM40 20h1v1h-1zM42 20h4v1h-4zM47 20h2v1h-2zM50 20h2v1h-2zM4 21h2v1h-2zM11 21h4v1h-4zM16 21h2v1h-2zM20 21h1v1h-1zM22 21h1v1h-1zM26 21h2v1h-2zM33 21h1v1h-1zM36 21h1v1h-1zM40 21h1v1h-1zM43 21h4v1h-4zM50 21h1v1h-1zM52 21h1v1h-1zM4 22h1v1h-1zM6 22h2v1h-2zM9 22h2v1h-2zM12 22h3v1h-3zM16 22h2v1h-2zM21 22h1v1h-1zM25 22h2v1h-2zM28 22h2v1h-2zM31 22h2v1h-2zM34 22h3v1h-3zM38 22h3v1h-3zM42 22h2v1h-2zM45 22h2v1h-2zM48 22h3v1h-3zM52 22h1v1h-1zM4 23h1v1h-1zM6 23h1v1h-1zM8 23h2v1h-2zM11 23h1v1h-1zM16 23h2v1h-2zM21 23h1v1h-1zM24 23h1v1h-1zM28 23h2v1h-2zM34 23h5v1h-5zM40 23h5v1h-5zM47 23h3v1h-3zM51 23h2v1h-2zM4 24h2v1h-2zM7 24h1v1h-1zM10 24h1v1h-1zM12 24h1v1h-1zM15 24h1v1h-1zM19 24h1v1h-1zM23 24h1v1h-1zM25 24h1v1h-1zM27 24h1v1h-1zM29 24h1v1h-1zM31 24h1v1h-1zM34 24h3v1h-3zM38 24h1v1h-1zM40 24h1v1h-1zM43 24h1v1h-1zM45 24h2v1h-2zM48 24h1v1h-1zM51 24h2v1h-2zM4 25h1v1h-1zM6 25h1v1h-1zM8 25h2v1h-2zM12 25h3v1h-3zM17 25h2v1h-2zM23 25h2v1h-2zM26 25h1v1h-1zM32 25h2v1h-2zM35 25h1v1h-1zM37 25h1v1h-1zM39 25h1v1h-1zM43 25h1v1h-1zM45 25h1v1h-1zM50 25h1v1h-1zM52 25h1v1h-1zM4 26h2v1h-2zM8 26h5v1h-5zM15 26h2v1h-2zM20 26h3v1h-3zM26 26h8v1h-8zM35 26h3v1h-3zM41 26h1v1h-1zM44 26h7v1h-7zM52 26h1v1h-1zM5 27h4v1h-4zM12 27h1v1h-1zM14 27h1v1h-1zM16 27h1v1h-1zM18 27h1v1h-1zM20 27h2v1h-2zM25 27h2v1h-2zM30 27h2v1h-2zM33 27h2v1h-2zM37 27h1v1h-1zM40 27h5v1h-5zM48 27h2v1h-2zM51 27h1v1h-1zM4 28h3v1h-3zM8 28h1v1h-1zM10 28h1v1h-1zM12 28h1v1h-1zM21 28h6v1h-6zM28 28h1v1h-1zM30 28h2v1h-2zM34 28h1v1h-1zM39 28h2v1h-2zM43 28h2v1h-2zM46 28h1v1h-1zM48 28h2v1h-2zM51 28h2v1h-2zM4 29h1v1h-1zM6 29h3v1h-3zM12 29h6v1h-6zM21 29h2v1h-2zM26 29h1v1h-1zM30 29h2v1h-2zM34 29h1v1h-1zM36 29h2v1h-2zM39 29h3v1h-3zM44 29h1v1h-1zM48 29h2v1h-2zM6 30h7v1h-7zM14 30h2v1h-2zM17 30h3v1h-3zM21 30h2v1h-2zM25 30h6v1h-6zM33 30h1v1h-1zM37 30h1v1h-1zM39 30h2v1h-2zM44 30h5v1h-5zM50 30h1v1h-1zM4 31h3v1h-3zM9 31h1v1h-1zM15 31h1v1h-1zM17 31h1v1h-1zM20 31h1v1h-1zM22 31h1v1h-1zM24 31h1v1h-1zM27 31h1v1h-1zM29 31h1v1h-1zM32 31h2v1h-2zM35 31h1v1h-1zM37 31h1v1h-1zM40 31h1v1h-1zM43 31h5v1h-5zM49 31h1v1h-1zM52 31h1v1h-1zM4 32h1v1h-1zM6 32h1v1h-1zM8 32h1v1h-1zM10 32h1v1h-1zM12 32h3v1h-3zM16 32h2v1h-2zM23 32h1v1h-1zM27 32h1v1h-1zM29 32h1v1h-1zM31 32h1v1h-1zM35 32h2v1h-2zM38 32h1v1h-1zM40 32h1v1h-1zM43 32h1v1h-1zM45 32h2v1h-2zM48 32h2v1h-2zM4 33h2v1h-2zM7 33h3v1h-3zM11 33h1v1h-1zM13 33h1v1h-1zM15 33h6v1h-6zM22 33h4v1h-4zM28 33h8v1h-8zM37 33h1v1h-1zM41 33h1v1h-1zM51 33h2v1h-2zM6 34h1v1h-1zM8 34h1v1h-1zM10 34h2v1h-2zM14 34h1v1h-1zM16 34h1v1h-1zM18 34h3v1h-3zM23 34h2v1h-2zM27 34h2v1h-2zM35 34h2v1h-2zM39 34h1v1h-1zM44 34h3v1h-3zM48 34h2v1h-2zM52 34h1v1h-1zM4 35h1v1h-1zM6 35h4v1h-4zM12 35h3v1h-3zM16 35h3v1h-3zM23 35h1v1h-1zM27 35h1v1h-1zM29 35h2v1h-2zM35 35h1v1h-1zM37 35h3v1h-3zM41 35h1v1h-1zM43 35h1v1h-1zM45 35h2v1h-2zM49 35h1v1h-1zM51 35h1v1h-1zM4 36h2v1h-2zM7 36h2v1h-2zM10 36h1v1h-1zM12 36h2v1h-2zM18 36h1v1h-1zM20 36h1v1h-1zM22 36h1v1h-1zM29 36h1v1h-1zM32 36h6v1h-6zM39 36h2v1h-2zM42 36h2v1h-2zM45 36h1v1h-1zM47 36h1v1h-1zM49 36h1v1h-1zM52 36h1v1h-1zM4 37h1v1h-1zM6 37h4v1h-4zM12 37h1v1h-1zM15 37h3v1h-3zM19 37h3v1h-3zM23 37h1v1h-1zM26 37h3v1h-3zM31 37h1v1h-1zM34 37h2v1h-2zM37 37h1v1h-1zM39 37h1v1h-1zM43 37h3v1h-3zM47 37h1v1h-1zM49 37h2v1h-2zM52 37h1v1h-1zM5 38h4v1h-4zM10 38h1v1h-1zM12 38h2v1h-2zM15 38h1v1h-1zM19 38h1v1h-1zM23 38h3v1h-3zM28 38h1v1h-1zM31 38h1v1h-1zM33 38h1v1h-1zM35 38h3v1h-3zM39 38h3v1h-3zM44 38h1v1h-1zM46 38h3v1h-3zM52 38h1v1h-1zM6 39h1v1h-1zM8 39h1v1h-1zM12 39h1v1h-1zM15 39h1v1h-1zM17 39h1v1h-1zM21 39h8v1h-8zM34 39h1v1h-1zM40 39h1v1h-1zM43 39h1v1h-1zM46 39h1v1h-1zM49 39h1v1h-1zM51 39h2v1h-2zM10 40h1v1h-1zM14 40h1v1h-1zM16 40h6v1h-6zM23 40h1v1h-1zM26 40h7v1h-7zM38 40h3v1h-3zM43 40h5v1h-5zM52 40h1v1h-1zM4 41h2v1h-2zM9 41h1v1h-1zM12 41h1v1h-1zM14 41h2v1h-2zM17 41h2v1h-2zM26 41h1v1h-1zM29 41h1v1h-1zM32 41h1v1h-1zM36 41h1v1h-1zM41 41h1v1h-1zM45 41h2v1h-2zM49 41h2v1h-2zM52 41h1v1h-1zM5 42h1v1h-1zM9 42h2v1h-2zM12 42h2v1h-2zM15 42h2v1h-2zM19 42h1v1h-1zM21 42h3v1h-3zM26 42h1v1h-1zM30 42h1v1h-1zM32 42h1v1h-1zM34 42h1v1h-1zM38 42h1v1h-1zM40 42h1v1h-1zM43 42h1v1h-1zM46 42h1v1h-1zM49 42h1v1h-1zM52 42h1v1h-1zM5 43h3v1h-3zM15 43h2v1h-2zM19 43h1v1h-1zM21 43h2v1h-2zM24 43h1v1h-1zM30 43h2v1h-2zM33 43h1v1h-1zM36 43h8v1h-8zM46 43h1v1h-1zM48 43h3v1h-3zM4 44h3v1h-3zM10 44h1v1h-1zM13 44h1v1h-1zM15 44h1v1h-1zM17 44h3v1h-3zM22 44h2v1h-2zM25 44h7v1h-7zM34 44h1v1h-1zM36 44h2v1h-2zM40 44h2v1h-2zM43 44h8v1h-8zM52 44h1v1h-1zM12 45h3v1h-3zM18 45h1v1h-1zM20 45h1v1h-1zM26 45h1v1h-1zM30 45h5v1h-5zM36 45h9v1h-9zM48 45h2v1h-2zM52 45h1v1h-1zM4 46h7v1h-7zM12 46h1v1h-1zM14 46h2v1h-2zM17 46h6v1h-6zM24 46h3v1h-3zM28 46h1v1h-1zM30 46h3v1h-3zM37 46h2v1h-2zM41 46h2v1h-2zM44 46h1v1h-1zM46 46h1v1h-1zM48 46h3v1h-3zM52 46h1v1h-1zM4 47h1v1h-1zM10 47h1v1h-1zM12 47h2v1h-2zM19 47h2v1h-2zM23 47h4v1h-4zM30 47h1v1h-1zM32 47h1v1h-1zM34 47h5v1h-5zM40 47h3v1h-3zM44 47h1v1h-1zM48 47h2v1h-2zM51 47h1v1h-1zM4 48h1v1h-1zM6 48h3v1h-3zM10 48h1v1h-1zM14 48h3v1h-3zM19 48h1v1h-1zM21 48h3v1h-3zM26 48h6v1h-6zM33 48h2v1h-2zM36 48h1v1h-1zM38 48h3v1h-3zM43 48h6v1h-6zM51 48h1v1h-1zM4 49h1v1h-1zM6 49h3v1h-3zM10 49h1v1h-1zM13 49h4v1h-4zM18 49h3v1h-3zM22 49h6v1h-6zM31 49h1v1h-1zM37 49h1v1h-1zM39 49h3v1h-3zM43 49h1v1h-1zM45 49h1v1h-1zM48 49h2v1h-2zM4 50h1v1h-1zM6 50h3v1h-3zM10 50h1v1h-1zM12 50h2v1h-2zM15 50h1v1h-1zM18 50h3v1h-3zM28 50h1v1h-1zM36 50h2v1h-2zM39 50h3v1h-3zM43 50h6v1h-6zM50 50h1v1h-1zM52 50h1v1h-1zM4 51h1v1h-1zM10 51h1v1h-1zM18 51h1v1h-1zM20 51h1v1h-1zM22 51h3v1h-3zM26 51h1v1h-1zM29 51h3v1h-3zM34 51h3v1h-3zM38 51h3v1h-3zM43 51h1v1h-1zM45 51h1v1h-1zM48 51h1v1h-1zM4 52h7v1h-7zM13 52h2v1h-2zM16 52h2v1h-2zM20 52h1v1h-1zM22 52h2v1h-2zM25 52h5v1h-5zM32 52h2v1h-2zM36 52h1v1h-1zM38 52h1v1h-1zM40 52h6v1h-6zM47 52h2v1h-2zM52 52h1v1h-1z"/>
</svg>
